<?xml version="1.0" encoding="utf-8"?>
<!-- Generator: Adobe Illustrator 24.2.3, SVG Export Plug-In . SVG Version: 6.00 Build 0)  -->
<svg version="1.1" id="レイヤー_1" xmlns="http://www.w3.org/2000/svg" xmlns:xlink="http://www.w3.org/1999/xlink" x="0px"
	 y="0px" viewBox="0 0 150 150" style="enable-background:new 0 0 150 150;" xml:space="preserve">
<style type="text/css">
	.st0{fill:#D91D2E;}
	.st1{fill:none;}
</style>
<g>
	<path class="st0" d="M85,21.75h18.25V73.5h3.5V20c0-0.97-0.78-1.75-1.75-1.75H85c-0.97,0-1.75,0.78-1.75,1.75S84.03,21.75,85,21.75
		z"/>
	<path class="st0" d="M30,99.75c5.5,0,10.24-3.31,12.34-8.05c1.66,3.98,5.58,6.8,10.16,6.8h75c1.93,0,3.5-1.57,3.5-3.5V80
		c0-1.93-1.57-3.5-3.5-3.5H83.11c4.64-7.39,5.81-17.61,6.07-23.44c0.09-0.05,0.18-0.09,0.26-0.15l7.5-5
		c0.97-0.65,1.56-1.74,1.56-2.91V30c0-1.93-1.57-3.5-3.5-3.5H80c-1.93,0-3.5,1.57-3.5,3.5v15c0,1.17,0.58,2.26,1.56,2.91l7.5,5
		c0.04,0.03,0.08,0.04,0.12,0.07c-0.37,8.37-2.34,17.85-6.87,23.52H52.5c-4.14,0-7.75,2.3-9.63,5.69
		c-1.73-5.47-6.84-9.44-12.87-9.44c-7.44,0-13.5,6.06-13.5,13.5S22.56,99.75,30,99.75z"/>
	<path class="st0" d="M103.25,111.5v20c0,0.97,0.78,1.75,1.75,1.75s1.75-0.78,1.75-1.75v-20H103.25z"/>
	<path class="st0" d="M130,101.5H20c-1.93,0-3.5,1.57-3.5,3.5s1.57,3.5,3.5,3.5h6.5V130c0,1.93,1.57,3.5,3.5,3.5s3.5-1.57,3.5-3.5
		v-21.5h83V130c0,1.93,1.57,3.5,3.5,3.5s3.5-1.57,3.5-3.5v-21.5h6.5c1.93,0,3.5-1.57,3.5-3.5S131.93,101.5,130,101.5z"/>
</g>
<rect id="_x3C_スライス_x3E__13_" class="st1" width="150" height="150"/>
<rect class="st1" width="150" height="150"/>
</svg>
