<?xml version="1.0" encoding="utf-8"?>
<!-- Generator: Adobe Illustrator 24.2.3, SVG Export Plug-In . SVG Version: 6.00 Build 0)  -->
<svg version="1.1" id="レイヤー_1" xmlns="http://www.w3.org/2000/svg" xmlns:xlink="http://www.w3.org/1999/xlink" x="0px"
	 y="0px" viewBox="0 0 150 150" style="enable-background:new 0 0 150 150;" xml:space="preserve">
<style type="text/css">
	.st0{fill:#D91D2E;}
</style>
<path class="st0" d="M140,150H10c-5.52,0-10-4.48-10-10V10C0,4.48,4.48,0,10,0h130c5.52,0,10,4.48,10,10v130
	C150,145.52,145.52,150,140,150z M30,99.25c5.78,0,10.69-3.79,12.37-9.02C43.58,94.7,47.65,98,52.5,98h75c1.66,0,3-1.34,3-3V80
	c0-1.66-1.34-3-3-3H82.49c5.07-7.56,6.23-18.5,6.46-24.38c0.07-0.04,0.15-0.08,0.22-0.12l7.5-5C97.5,46.94,98,46,98,45V30
	c0-1.66-1.34-3-3-3H80c-1.66,0-3,1.34-3,3v15c0,1,0.5,1.94,1.34,2.5l7.5,5c0.03,0.02,0.07,0.04,0.11,0.06
	c-0.33,8.69-2.39,18.67-7.23,24.44H52.5c-4.43,0-8.22,2.76-9.76,6.66C41.53,77.73,36.28,73.25,30,73.25c-7.17,0-13,5.83-13,13
	S22.83,99.25,30,99.25z M85,21.5h18.5V74h3V20c0-0.83-0.67-1.5-1.5-1.5H85c-0.83,0-1.5,0.67-1.5,1.5S84.17,21.5,85,21.5z M130,102
	H20c-1.66,0-3,1.34-3,3s1.34,3,3,3h7v22c0,1.66,1.34,3,3,3s3-1.34,3-3v-22h84v22c0,1.66,1.34,3,3,3s3-1.34,3-3v-22h7
	c1.66,0,3-1.34,3-3S131.66,102,130,102z M103.5,111v20.5c0,0.83,0.67,1.5,1.5,1.5s1.5-0.67,1.5-1.5V111H103.5z"/>
</svg>
