<?xml version="1.0" encoding="utf-8"?>
<!-- Generator: Adobe Illustrator 24.2.1, SVG Export Plug-In . SVG Version: 6.00 Build 0)  -->
<svg version="1.1" id="レイヤー_1" xmlns="http://www.w3.org/2000/svg" xmlns:xlink="http://www.w3.org/1999/xlink" x="0px"
	 y="0px" viewBox="0 0 150 150" style="enable-background:new 0 0 150 150;" xml:space="preserve">
<style type="text/css">
	.st0{fill:#95BF32;}
	.st1{fill:#FFFFFF;}
</style>
<g>
	<g>
		<path class="st0" d="M140,150H10c-5.5,0-10-4.5-10-10V10C0,4.5,4.5,0,10,0h130c5.5,0,10,4.5,10,10v130
			C150,145.5,145.5,150,140,150z"/>
	</g>
	<path class="st1" d="M109.6,34.6L89.1,55.2C100.6,60.5,108,72,108,85c0,17.2-13.2,31.3-30,32.9v9.1h22c1.7,0,3,1.3,3,3s-1.3,3-3,3
		H50c-1.7,0-3-1.3-3-3s1.3-3,3-3h22v-9.1c-14-1.3-25.6-11.2-29-24.9H30c-1.7,0-3-1.3-3-3s1.3-3,3-3h35c1.7,0,3,1.3,3,3s-1.3,3-3,3
		H49.2c3.4,11.2,13.8,19,25.8,19c14.9,0,27-12.1,27-27c0-11.2-7.1-21.3-17.5-25.3L66.4,77.8c-0.6,0.6-1.4,0.9-2.1,0.9
		s-1.5-0.3-2.1-0.9L60,75.6l-4.3,4.3c-0.6,0.6-1.4,0.9-2.1,0.9c-0.8,0-1.5-0.3-2.1-0.9l-9.7-9.7c-1.2-1.2-1.2-3.1,0-4.2l4.3-4.3
		l-2.2-2.2c-0.6-0.6-0.9-1.3-0.9-2.1s0.3-1.6,0.9-2.1l43.2-43.2c1.1-1.1,3.1-1.1,4.2,0l18.4,18.4c0.6,0.6,0.9,1.3,0.9,2.1
		S110.2,34.1,109.6,34.6z"/>
</g>
</svg>
