<?xml version="1.0" encoding="utf-8"?>
<!-- Generator: Adobe Illustrator 24.2.3, SVG Export Plug-In . SVG Version: 6.00 Build 0)  -->
<svg version="1.1" id="レイヤー_1" xmlns="http://www.w3.org/2000/svg" xmlns:xlink="http://www.w3.org/1999/xlink" x="0px"
	 y="0px" viewBox="0 0 150 150" style="enable-background:new 0 0 150 150;" xml:space="preserve">
<style type="text/css">
	.st0{fill:#95BF32;}
</style>
<path class="st0" d="M110,30L91.5,11.6c-1.3-1.3-3.6-1.3-4.9,0L43.4,54.8c-0.7,0.7-1,1.5-1,2.5c0,0.9,0.4,1.8,1,2.5l1.9,1.9
	l-3.9,3.9c-0.7,0.7-1,1.5-1,2.5c0,0.9,0.4,1.8,1,2.5l9.7,9.7c0.7,0.7,1.6,1,2.5,1s1.8-0.3,2.5-1l3.9-3.9l1.9,1.9
	c0.7,0.7,1.6,1,2.5,1s1.8-0.3,2.5-1l17.9-17.9c10,3.9,16.9,13.8,16.9,24.7c0,14.6-11.9,26.5-26.5,26.5c-11.6,0-21.5-7.4-25.1-18H65
	c1.9,0,3.5-1.6,3.5-3.5s-1.6-3.5-3.5-3.5H30c-1.9,0-3.5,1.6-3.5,3.5s1.6,3.5,3.5,3.5h12.6c3.5,13.5,15,23.4,28.9,24.8v8.2H50
	c-1.9,0-3.5,1.6-3.5,3.5s1.6,3.5,3.5,3.5h50c1.9,0,3.5-1.6,3.5-3.5s-1.6-3.5-3.5-3.5H78.5v-8.2c16.8-1.8,30-16,30-33.3
	c0-13-7.3-24.4-18.6-30l20-20C111.3,33.6,111.3,31.4,110,30z"/>
</svg>
