<?xml version="1.0" encoding="utf-8"?>
<!-- Generator: Adobe Illustrator 24.2.1, SVG Export Plug-In . SVG Version: 6.00 Build 0)  -->
<svg version="1.1" id="レイヤー_1" xmlns="http://www.w3.org/2000/svg" xmlns:xlink="http://www.w3.org/1999/xlink" x="0px"
	 y="0px" viewBox="0 0 150 150" style="enable-background:new 0 0 150 150;" xml:space="preserve">
<style type="text/css">
	.st0{fill:#F19024;}
	.st1{fill:#FFFFFF;}
</style>
<g>
	<g>
		<path class="st0" d="M140,150H10c-5.5,0-10-4.5-10-10V10C0,4.5,4.5,0,10,0h130c5.5,0,10,4.5,10,10v130
			C150,145.5,145.5,150,140,150z"/>
	</g>
	<path class="st1" d="M130,127h-7V45c0-1.7-1.3-3-3-3h-17V20c0-1.7-1.3-3-3-3H50c-1.7,0-3,1.3-3,3v22H30c-1.7,0-3,1.3-3,3v82h-7
		c-1.7,0-3,1.3-3,3s1.3,3,3,3h110c1.7,0,3-1.3,3-3S131.7,127,130,127z M48,110c0,1.7-1.3,3-3,3s-3-1.3-3-3v-5c0-1.7,1.3-3,3-3
		s3,1.3,3,3V110z M48,90c0,1.7-1.3,3-3,3s-3-1.3-3-3v-5c0-1.7,1.3-3,3-3s3,1.3,3,3V90z M48,70c0,1.7-1.3,3-3,3s-3-1.3-3-3v-5
		c0-1.7,1.3-3,3-3s3,1.3,3,3V70z M62,65c0-1.7,1.3-3,3-3s3,1.3,3,3v5c0,1.7-1.3,3-3,3s-3-1.3-3-3V65z M65,93c-1.7,0-3-1.3-3-3v-5
		c0-1.7,1.3-3,3-3s3,1.3,3,3v5C68,91.7,66.7,93,65,93z M82,127H68v-19h14V127z M88,90c0,1.7-1.3,3-3,3s-3-1.3-3-3v-5
		c0-1.7,1.3-3,3-3s3,1.3,3,3V90z M88,70c0,1.7-1.3,3-3,3s-3-1.3-3-3v-5c0-1.7,1.3-3,3-3s3,1.3,3,3V70z M85,43h-7v7c0,1.7-1.3,3-3,3
		s-3-1.3-3-3v-7h-7c-1.7,0-3-1.3-3-3s1.3-3,3-3h7v-7c0-1.7,1.3-3,3-3s3,1.3,3,3v7h7c1.7,0,3,1.3,3,3S86.7,43,85,43z M108,110
		c0,1.7-1.3,3-3,3s-3-1.3-3-3v-5c0-1.7,1.3-3,3-3s3,1.3,3,3V110z M108,90c0,1.7-1.3,3-3,3s-3-1.3-3-3v-5c0-1.7,1.3-3,3-3s3,1.3,3,3
		V90z M108,70c0,1.7-1.3,3-3,3s-3-1.3-3-3v-5c0-1.7,1.3-3,3-3s3,1.3,3,3V70z"/>
</g>
</svg>
