<?xml version="1.0" encoding="utf-8"?>
<!-- Generator: Adobe Illustrator 24.2.3, SVG Export Plug-In . SVG Version: 6.00 Build 0)  -->
<svg version="1.1" id="レイヤー_1" xmlns="http://www.w3.org/2000/svg" xmlns:xlink="http://www.w3.org/1999/xlink" x="0px"
	 y="0px" viewBox="0 0 150 150" style="enable-background:new 0 0 150 150;" xml:space="preserve">
<style type="text/css">
	.st0{fill:#95BF32;}
	.st1{fill:none;}
</style>
<g>
	<path class="st0" d="M27.96,54.06c0.74-1.66,1.57-3.29,2.47-4.84c0.97-1.67,0.39-3.82-1.28-4.78c-1.67-0.97-3.81-0.39-4.78,1.28
		c-1.02,1.77-1.96,3.61-2.79,5.48c-0.02,0.04-0.04,0.08-0.04,0.1c-0.78,1.77,0.03,3.82,1.79,4.6c0.46,0.2,0.94,0.3,1.41,0.3
		c1.34,0,2.61-0.77,3.2-2.06C27.94,54.11,27.95,54.08,27.96,54.06z"/>
	<path class="st0" d="M44.33,29.22c-1.17-1.53-3.37-1.83-4.91-0.65c-1.65,1.27-3.26,2.63-4.76,4.07c-1.4,1.33-1.46,3.55-0.12,4.95
		c0.69,0.72,1.61,1.09,2.54,1.09c0.87,0,1.73-0.32,2.41-0.96c1.33-1.26,2.74-2.47,4.19-3.58C45.21,32.95,45.5,30.75,44.33,29.22z"/>
	<path class="st0" d="M25.25,88.26c-0.5-1.87-2.42-2.98-4.28-2.48c-1.87,0.5-2.98,2.42-2.48,4.28c0.54,2.01,1.19,4.01,1.93,5.95
		c0.54,1.39,1.86,2.24,3.27,2.24c0.42,0,0.84-0.08,1.26-0.24c1.8-0.69,2.7-2.72,2.01-4.52C26.3,91.79,25.72,90.03,25.25,88.26z"/>
	<path class="st0" d="M54.24,122.12c-0.05-0.03-0.12-0.05-0.18-0.08c-1.67-0.74-3.31-1.58-4.88-2.49c-1.67-0.96-3.81-0.4-4.78,1.28
		c-0.97,1.67-0.39,3.81,1.28,4.78c1.78,1.03,3.63,1.97,5.52,2.81c0.48,0.22,0.98,0.33,1.47,0.33c1.28,0,2.52-0.71,3.13-1.94
		C56.67,125.08,55.96,122.98,54.24,122.12z"/>
	<path class="st0" d="M20.02,77.13c1.89,0,3.45-1.51,3.5-3.41c0.04-1.83,0.19-3.68,0.43-5.49c0.25-1.92-1.09-3.68-3.01-3.93
		c-1.91-0.25-3.68,1.09-3.93,3.01c-0.27,2.06-0.44,4.16-0.49,6.24c-0.05,1.93,1.48,3.54,3.41,3.58
		C19.96,77.13,19.99,77.13,20.02,77.13z"/>
	<path class="st0" d="M95.83,27.91l0.12,0.05c1.65,0.73,3.27,1.56,4.82,2.45c0.55,0.32,1.15,0.47,1.74,0.47
		c1.21,0,2.39-0.63,3.04-1.75c0.96-1.67,0.39-3.81-1.29-4.78c-1.76-1.01-3.59-1.95-5.49-2.79l-0.07-0.03
		c-1.77-0.79-3.83,0-4.62,1.77C93.27,25.05,94.06,27.12,95.83,27.91z"/>
	<path class="st0" d="M64.18,20.97c-0.5-1.87-2.42-2.97-4.29-2.47c-2.01,0.54-4.01,1.19-5.95,1.94c-1.8,0.7-2.7,2.72-2.01,4.53
		c0.54,1.39,1.86,2.24,3.27,2.24c0.42,0,0.84-0.08,1.26-0.24c1.71-0.66,3.47-1.23,5.24-1.71C63.57,24.76,64.68,22.84,64.18,20.97z"
		/>
	<path class="st0" d="M76.25,23.52c1.83,0.04,3.68,0.19,5.49,0.43c0.16,0.02,0.31,0.03,0.46,0.03c1.73,0,3.23-1.28,3.46-3.04
		c0.25-1.92-1.09-3.68-3.01-3.93c-2.06-0.27-4.16-0.44-6.24-0.49c-1.9-0.08-3.54,1.48-3.58,3.42
		C72.78,21.87,74.31,23.47,76.25,23.52z"/>
	<path class="st0" d="M124.73,61.67c0.42,1.56,1.83,2.59,3.38,2.59c0.3,0,0.61-0.04,0.91-0.12c1.87-0.5,2.97-2.42,2.47-4.29
		c-0.54-2.01-1.19-4.01-1.94-5.95c-0.7-1.8-2.72-2.7-4.53-2c-1.8,0.7-2.7,2.72-2,4.53C123.68,58.13,124.25,59.9,124.73,61.67z"/>
	<path class="st0" d="M93.47,123.06c-1.71,0.66-3.48,1.23-5.24,1.7c-1.87,0.5-2.98,2.42-2.48,4.28c0.42,1.57,1.83,2.6,3.38,2.6
		c0.3,0,0.6-0.04,0.9-0.12c2.01-0.53,4.01-1.18,5.95-1.93c1.8-0.69,2.71-2.72,2.01-4.52C97.3,123.27,95.28,122.37,93.47,123.06z"/>
	<path class="st0" d="M110.46,112.35c-1.32,1.26-2.74,2.46-4.2,3.57c-1.54,1.17-1.83,3.37-0.66,4.91c0.69,0.9,1.73,1.38,2.79,1.38
		c0.74,0,1.49-0.23,2.12-0.72c1.66-1.27,3.26-2.63,4.77-4.06c1.4-1.33,1.46-3.55,0.13-4.95
		C114.08,111.08,111.86,111.02,110.46,112.35z"/>
	<path class="st0" d="M126.71,94.01c-1.77-0.78-3.83,0.02-4.61,1.79l-0.06,0.13c-0.75,1.68-1.59,3.33-2.5,4.91
		c-0.97,1.67-0.4,3.81,1.28,4.78c0.55,0.32,1.16,0.47,1.75,0.47c1.21,0,2.38-0.63,3.03-1.75c1.04-1.79,1.99-3.67,2.86-5.61
		l0.05-0.12C129.28,96.86,128.48,94.79,126.71,94.01z"/>
	<path class="st0" d="M130.06,72.79c-1.91-0.07-3.54,1.49-3.58,3.42c-0.04,1.83-0.18,3.68-0.42,5.49c-0.25,1.92,1.1,3.67,3.01,3.93
		c0.16,0.02,0.31,0.03,0.46,0.03c1.73,0,3.23-1.28,3.46-3.04c0.27-2.06,0.43-4.16,0.48-6.24C133.53,74.44,132,72.83,130.06,72.79z"
		/>
	<path class="st0" d="M121.41,39.39c-1.27-1.65-2.63-3.25-4.07-4.76c-0.53-0.55-1.19-0.89-1.89-1.02c-1.36-0.92-3.23-0.78-4.43,0.42
		l-2.12,2.12c-1.37,1.37-1.37,3.58,0,4.95c0.68,0.68,1.58,1.03,2.47,1.03c0.88,0,1.75-0.33,2.43-0.98c0.71,0.82,1.4,1.65,2.06,2.5
		c0.69,0.9,1.73,1.37,2.78,1.37c0.74,0,1.49-0.24,2.12-0.72C122.29,43.12,122.58,40.92,121.41,39.39z"/>
	<path class="st0" d="M73.68,126.48c-1.83-0.05-3.67-0.19-5.49-0.43c-1.91-0.26-3.68,1.09-3.93,3c-0.26,1.92,1.09,3.68,3,3.93
		c2.07,0.28,4.17,0.44,6.24,0.5c0.03,0,0.06,0,0.09,0c1.89,0,3.45-1.51,3.5-3.41C77.14,128.14,75.61,126.53,73.68,126.48z"/>
	<path class="st0" d="M51.54,93.51l-4.2,4.2c-1.37,1.37-1.37,3.58,0,4.95c0.68,0.68,1.58,1.03,2.47,1.03s1.79-0.34,2.47-1.03
		l4.2-4.2c1.37-1.37,1.37-3.58,0-4.95C55.12,92.14,52.91,92.14,51.54,93.51z"/>
	<path class="st0" d="M67.68,87.27l4.2-4.2c1.37-1.37,1.37-3.58,0-4.95c-1.37-1.37-3.58-1.37-4.95,0l-4.2,4.2
		c-1.37,1.37-1.37,3.58,0,4.95c0.68,0.68,1.58,1.03,2.47,1.03S67,87.95,67.68,87.27z"/>
	<path class="st0" d="M87.27,62.73c-1.37-1.37-3.58-1.37-4.95,0l-4.2,4.2c-1.37,1.37-1.37,3.58,0,4.95
		c0.68,0.68,1.58,1.03,2.47,1.03s1.79-0.34,2.47-1.03l4.2-4.2C88.63,66.32,88.63,64.1,87.27,62.73z"/>
	<path class="st0" d="M97.7,47.35l-4.2,4.2c-1.37,1.37-1.37,3.58,0,4.95c0.68,0.68,1.58,1.03,2.47,1.03s1.79-0.34,2.47-1.03l4.2-4.2
		c1.37-1.37,1.37-3.58,0-4.95C101.29,45.98,99.07,45.98,97.7,47.35z"/>
	<path class="st0" d="M36.21,108.85c-0.73-0.83-1.43-1.68-2.1-2.56c-1.17-1.54-3.37-1.83-4.91-0.66c-1.54,1.17-1.83,3.37-0.66,4.91
		c1.27,1.66,2.63,3.26,4.06,4.77c0.52,0.55,1.19,0.89,1.88,1.02c0.61,0.43,1.31,0.66,2.02,0.66c0.9,0,1.79-0.34,2.47-1.03l2.12-2.12
		c1.37-1.37,1.37-3.58,0-4.95C39.75,107.54,37.58,107.53,36.21,108.85z"/>
</g>
<rect id="_x3C_スライス_x3E__11_" class="st1" width="150" height="150"/>
</svg>
