<?xml version="1.0" encoding="utf-8"?>
<!-- Generator: Adobe Illustrator 24.2.3, SVG Export Plug-In . SVG Version: 6.00 Build 0)  -->
<svg version="1.1" id="レイヤー_1" xmlns="http://www.w3.org/2000/svg" xmlns:xlink="http://www.w3.org/1999/xlink" x="0px"
	 y="0px" viewBox="0 0 150 150" style="enable-background:new 0 0 150 150;" xml:space="preserve">
<style type="text/css">
	.st0{fill:#95BF32;}
	.st1{fill:#FFFFFF;}
</style>
<g>
	<g>
		<path class="st0" d="M140,150H10c-5.52,0-10-4.48-10-10V10C0,4.48,4.48,0,10,0h130c5.52,0,10,4.48,10,10v130
			C150,145.52,145.52,150,140,150z"/>
	</g>
	<g>
		<path class="st1" d="M43.93,29.52c-1.01-1.32-2.89-1.57-4.21-0.56c-1.64,1.25-3.23,2.61-4.72,4.03c-1.2,1.14-1.25,3.04-0.11,4.24
			c0.59,0.62,1.38,0.93,2.17,0.93c0.74,0,1.49-0.27,2.07-0.83c1.34-1.27,2.76-2.49,4.23-3.61C44.69,32.72,44.94,30.84,43.93,29.52z"
			/>
		<path class="st1" d="M54.01,122.57c-0.05-0.02-0.1-0.05-0.16-0.07c-1.68-0.75-3.34-1.59-4.92-2.51c-1.44-0.83-3.27-0.34-4.1,1.1
			c-0.83,1.43-0.34,3.27,1.1,4.1c1.76,1.02,3.6,1.96,5.47,2.79c0.41,0.19,0.84,0.28,1.27,0.28c1.1,0,2.16-0.61,2.69-1.66
			C56.09,125.11,55.49,123.31,54.01,122.57z"/>
		<path class="st1" d="M28.9,44.87c-1.44-0.83-3.27-0.33-4.1,1.1c-1.01,1.75-1.94,3.58-2.77,5.44c-0.02,0.04-0.03,0.07-0.04,0.1
			c-0.67,1.52,0.01,3.32,1.52,3.98c0.4,0.18,0.82,0.26,1.23,0.26c1.14,0,2.22-0.65,2.71-1.77c0.02-0.04,0.04-0.08,0.06-0.12
			c0.74-1.67,1.58-3.32,2.49-4.89C30.83,47.53,30.33,45.69,28.9,44.87z"/>
		<path class="st1" d="M73.67,126.98c-1.84-0.05-3.71-0.19-5.54-0.44c-1.64-0.21-3.15,0.93-3.37,2.58
			c-0.22,1.64,0.93,3.15,2.58,3.37c2.05,0.27,4.13,0.44,6.19,0.49c0.03,0,0.05,0,0.08,0c1.62,0,2.96-1.29,3-2.92
			C76.63,128.4,75.32,127.02,73.67,126.98z"/>
		<path class="st1" d="M125.21,61.54c0.36,1.34,1.57,2.22,2.9,2.22c0.26,0,0.52-0.03,0.78-0.1c1.6-0.43,2.55-2.08,2.12-3.68
			c-0.54-1.99-1.18-3.97-1.93-5.9c-0.6-1.54-2.33-2.31-3.88-1.71c-1.54,0.6-2.31,2.34-1.71,3.88
			C124.15,57.97,124.73,59.75,125.21,61.54z"/>
		<path class="st1" d="M76.26,23.02c1.85,0.04,3.71,0.19,5.54,0.43c0.13,0.02,0.27,0.03,0.4,0.03c1.48,0,2.77-1.1,2.97-2.61
			c0.22-1.64-0.94-3.15-2.58-3.37c-2.04-0.27-4.13-0.43-6.19-0.48c-1.61-0.04-3.03,1.27-3.07,2.93S74.6,22.98,76.26,23.02z"/>
		<path class="st1" d="M24.77,88.39c-0.43-1.6-2.08-2.55-3.67-2.12c-1.6,0.43-2.55,2.07-2.12,3.67c0.53,1.99,1.18,3.98,1.92,5.9
			c0.46,1.19,1.6,1.92,2.8,1.92c0.36,0,0.72-0.06,1.08-0.2c1.55-0.6,2.32-2.33,1.72-3.88C25.82,91.96,25.25,90.18,24.77,88.39z"/>
		<path class="st1" d="M20.02,76.63c1.62,0,2.96-1.29,3-2.93c0.05-1.85,0.19-3.71,0.44-5.54c0.22-1.64-0.94-3.15-2.58-3.37
			c-1.65-0.21-3.15,0.94-3.37,2.58c-0.27,2.04-0.44,4.12-0.49,6.19c-0.04,1.66,1.27,3.03,2.93,3.07
			C19.97,76.63,19.99,76.63,20.02,76.63z"/>
		<path class="st1" d="M63.69,21.1c-0.43-1.6-2.07-2.55-3.67-2.12c-1.99,0.53-3.98,1.18-5.9,1.92c-1.55,0.6-2.32,2.33-1.72,3.88
			c0.46,1.19,1.6,1.92,2.8,1.92c0.36,0,0.72-0.07,1.08-0.2c1.72-0.66,3.5-1.25,5.29-1.72C63.17,24.35,64.12,22.7,63.69,21.1z"/>
		<path class="st1" d="M93.65,123.53c-1.73,0.66-3.51,1.24-5.29,1.72c-1.6,0.43-2.55,2.07-2.13,3.67c0.36,1.34,1.57,2.23,2.9,2.23
			c0.26,0,0.52-0.03,0.77-0.1c1.99-0.53,3.97-1.17,5.9-1.91c1.55-0.59,2.32-2.33,1.73-3.88S95.19,122.93,93.65,123.53z"/>
		<path class="st1" d="M121.01,39.69c-1.26-1.64-2.61-3.23-4.04-4.72c-0.48-0.5-1.09-0.79-1.73-0.89c-1.17-0.85-2.82-0.76-3.88,0.3
			l-2.12,2.12c-1.17,1.17-1.17,3.07,0,4.24c0.59,0.59,1.35,0.88,2.12,0.88s1.54-0.29,2.12-0.88l0.33-0.33
			c0.84,0.95,1.66,1.92,2.43,2.92c0.59,0.77,1.48,1.18,2.38,1.18c0.64,0,1.28-0.2,1.82-0.62C121.77,42.89,122.02,41.01,121.01,39.69
			z"/>
		<path class="st1" d="M110.8,112.71c-1.34,1.27-2.76,2.48-4.24,3.61c-1.32,1-1.57,2.89-0.57,4.21c0.59,0.77,1.48,1.18,2.39,1.18
			c0.63,0,1.27-0.2,1.82-0.61c1.64-1.25,3.24-2.61,4.73-4.02c1.2-1.14,1.25-3.04,0.11-4.24
			C113.91,111.62,112.01,111.57,110.8,112.71z"/>
		<path class="st1" d="M104,24.78c-1.74-1-3.56-1.93-5.44-2.77l-0.08-0.03c-1.51-0.67-3.29,0-3.96,1.51c-0.68,1.51,0,3.29,1.51,3.96
			l0.12,0.05c1.66,0.74,3.3,1.57,4.86,2.47c0.47,0.27,0.99,0.4,1.49,0.4c1.04,0,2.05-0.54,2.6-1.5
			C105.93,27.44,105.43,25.61,104,24.78z"/>
		<path class="st1" d="M126.5,94.47c-1.51-0.67-3.29,0.02-3.95,1.54l-0.06,0.13c-0.75,1.69-1.61,3.36-2.53,4.96
			c-0.83,1.43-0.34,3.27,1.09,4.1c0.47,0.27,0.99,0.4,1.5,0.4c1.04,0,2.04-0.54,2.6-1.5c1.03-1.78,1.98-3.64,2.83-5.55l0.06-0.13
			C128.71,96.91,128.02,95.14,126.5,94.47z"/>
		<path class="st1" d="M130.05,73.29c-1.63-0.03-3.03,1.27-3.07,2.93c-0.04,1.85-0.19,3.72-0.43,5.54
			c-0.22,1.64,0.94,3.15,2.58,3.37c0.13,0.02,0.26,0.03,0.4,0.03c1.48,0,2.77-1.1,2.97-2.61c0.27-2.04,0.43-4.12,0.48-6.19
			C133.02,74.7,131.71,73.33,130.05,73.29z"/>
		<path class="st1" d="M98.06,47.7l-4.2,4.2c-1.17,1.17-1.17,3.07,0,4.24c0.59,0.59,1.35,0.88,2.12,0.88s1.54-0.29,2.12-0.88
			l4.2-4.2c1.17-1.17,1.17-3.07,0-4.24C101.13,46.53,99.23,46.53,98.06,47.7z"/>
		<path class="st1" d="M51.9,93.86l-4.2,4.2c-1.17,1.17-1.17,3.07,0,4.24c0.59,0.59,1.35,0.88,2.12,0.88s1.54-0.29,2.12-0.88
			l4.2-4.2c1.17-1.17,1.17-3.07,0-4.24C54.97,92.69,53.07,92.69,51.9,93.86z"/>
		<path class="st1" d="M86.91,63.09c-1.17-1.17-3.07-1.17-4.24,0l-4.2,4.2c-1.17,1.17-1.17,3.07,0,4.24
			c0.59,0.59,1.35,0.88,2.12,0.88s1.54-0.29,2.12-0.88l4.2-4.2C88.08,66.16,88.08,64.26,86.91,63.09z"/>
		<path class="st1" d="M67.33,86.91l4.2-4.2c1.17-1.17,1.17-3.07,0-4.24c-1.17-1.17-3.07-1.17-4.24,0l-4.2,4.2
			c-1.17,1.17-1.17,3.07,0,4.24c0.59,0.59,1.35,0.88,2.12,0.88S66.74,87.5,67.33,86.91z"/>
		<path class="st1" d="M36.51,109.25l-0.33,0.33c-0.86-0.96-1.7-1.95-2.48-2.98c-1-1.32-2.89-1.57-4.21-0.56
			c-1.32,1.01-1.57,2.89-0.56,4.21c1.26,1.64,2.61,3.23,4.03,4.72c0.48,0.5,1.08,0.79,1.72,0.89c0.54,0.42,1.18,0.64,1.83,0.64
			c0.77,0,1.54-0.29,2.12-0.88l2.12-2.12c1.17-1.17,1.17-3.07,0-4.24C39.58,108.08,37.68,108.08,36.51,109.25z"/>
	</g>
</g>
</svg>
