<?xml version="1.0" encoding="utf-8"?>
<!-- Generator: Adobe Illustrator 24.2.3, SVG Export Plug-In . SVG Version: 6.00 Build 0)  -->
<svg version="1.1" id="レイヤー_1" xmlns="http://www.w3.org/2000/svg" xmlns:xlink="http://www.w3.org/1999/xlink" x="0px"
	 y="0px" viewBox="0 0 150 150" style="enable-background:new 0 0 150 150;" xml:space="preserve">
<style type="text/css">
	.st0{fill:#0B92BF;}
	.st1{fill:none;}
</style>
<path class="st0" d="M93.53,47.27l-4.89,4.89c-6.08-4.19-11.56-5.05-18.28-2.86c-3.47,1.13-6.26,3.49-7.64,6.47
	c-1.2,2.58-1.27,5.44-0.2,8.06c1.18,2.91,3.73,4.97,8.02,6.43l-5.37,5.37c-3.8-1.81-7.28-4.61-9.13-9.16
	c-1.81-4.44-1.69-9.29,0.34-13.65c2.2-4.74,6.51-8.45,11.82-10.18c1.12-0.36,2.22-0.66,3.31-0.89v-5.23c0-1.93,1.57-3.5,3.5-3.5
	s3.5,1.57,3.5,3.5v4.67c4.86,0.28,9.52,2.02,14.22,5.28C93.05,46.69,93.31,46.96,93.53,47.27z M84.82,74.36l-5.37,5.37
	c4.3,1.46,6.85,3.52,8.04,6.43c1.07,2.62,1,5.49-0.2,8.07c-1.39,2.98-4.17,5.34-7.64,6.47c-6.73,2.19-12.2,1.33-18.3-2.87
	l-4.88,4.88c0.22,0.31,0.49,0.59,0.82,0.82c4.7,3.26,9.36,4.99,14.22,5.28v4.68c0,1.93,1.57,3.5,3.5,3.5s3.5-1.57,3.5-3.5v-5.26
	c1.09-0.23,2.19-0.51,3.31-0.87c5.31-1.73,9.62-5.44,11.82-10.18c2.03-4.36,2.15-9.21,0.34-13.65
	C92.11,78.98,88.62,76.17,84.82,74.36z M128.42,98.79c-6.35,14.27-17.89,25.21-32.47,30.81c-6.81,2.61-13.9,3.92-20.98,3.92
	c-8.09,0-16.16-1.7-23.77-5.09c-14.27-6.35-25.21-17.89-30.81-32.47c-5.6-14.58-5.18-30.48,1.17-44.75
	C34.67,21.75,69.32,8.45,98.78,21.57c14.27,6.35,25.21,17.89,30.81,32.47C135.19,68.62,134.77,84.52,128.42,98.79z M36.2,108.84
	l72.65-72.65c-3.82-3.33-8.16-6.1-12.92-8.22c-6.78-3.02-13.88-4.45-20.87-4.45c-19.73,0-38.58,11.39-47.11,30.54
	C19.55,72.92,23.47,94.19,36.2,108.84z M123.05,56.55c-2.2-5.73-5.34-10.92-9.26-15.41L41.14,113.8c3.77,3.3,8.09,6.09,12.91,8.24
	c6.78,3.02,13.88,4.45,20.87,4.45c19.73,0,38.58-11.39,47.11-30.54C127.62,83.38,127.98,69.39,123.05,56.55z"/>
<rect id="_x3C_スライス_x3E__9_" class="st1" width="150" height="150"/>
</svg>
