<?xml version="1.0" encoding="utf-8"?>
<!-- Generator: Adobe Illustrator 24.2.3, SVG Export Plug-In . SVG Version: 6.00 Build 0)  -->
<svg version="1.1" id="レイヤー_1" xmlns="http://www.w3.org/2000/svg" xmlns:xlink="http://www.w3.org/1999/xlink" x="0px"
	 y="0px" viewBox="0 0 150 150" style="enable-background:new 0 0 150 150;" xml:space="preserve">
<style type="text/css">
	.st0{fill:#0B92BF;}
	.st1{fill:#FFFFFF;}
</style>
<g>
	<g>
		<path class="st0" d="M140,150H10c-5.52,0-10-4.48-10-10V10C0,4.48,4.48,0,10,0h130c5.52,0,10,4.48,10,10v130
			C150,145.52,145.52,150,140,150z"/>
	</g>
	<g>
		<path class="st1" d="M92.44,46.87c-4.77-3.31-9.49-5.03-14.44-5.22v-5.14c0-1.66-1.34-3-3-3s-3,1.34-3,3v5.65
			c-1.2,0.24-2.41,0.55-3.65,0.95c-5.18,1.69-9.38,5.3-11.52,9.92c-1.97,4.23-2.08,8.94-0.33,13.25c1.9,4.66,5.58,7.44,9.54,9.19
			l4.64-4.64c-4.63-1.51-7.35-3.69-8.62-6.81c-1.12-2.75-1.04-5.76,0.21-8.46c1.44-3.11,4.34-5.56,7.94-6.74
			c6.92-2.26,12.55-1.36,18.81,2.99c0.14,0.1,0.29,0.17,0.44,0.25l3.98-3.98C93.22,47.61,92.89,47.18,92.44,46.87z"/>
		<path class="st1" d="M83.95,74.52l-4.65,4.65c4.6,1.52,7.4,3.73,8.65,6.81c1.12,2.75,1.04,5.76-0.21,8.46
			c-1.44,3.11-4.34,5.56-7.94,6.74c-6.92,2.25-12.54,1.36-18.81-2.99c-0.15-0.1-0.3-0.18-0.46-0.25l-3.97,3.97
			c0.22,0.47,0.55,0.9,1,1.22c4.77,3.31,9.49,5.01,14.43,5.2v5.16c0,1.66,1.34,3,3,3s3-1.34,3-3v-5.66c1.2-0.24,2.41-0.54,3.65-0.94
			c5.18-1.69,9.38-5.3,11.52-9.91c1.97-4.23,2.08-8.94,0.33-13.25C91.61,79.05,87.91,76.27,83.95,74.52z"/>
		<path class="st1" d="M129.12,54.22c-5.55-14.46-16.4-25.89-30.55-32.19c-29.21-13-63.55,0.18-76.56,29.39
			c-6.3,14.15-6.71,29.91-1.16,44.37s16.4,25.89,30.55,32.19c7.64,3.4,15.63,5.01,23.5,5.01c22.21,0,43.45-12.83,53.06-34.4v0
			C134.26,84.44,134.67,68.68,129.12,54.22z M26.45,93.63c-4.98-12.96-4.61-27.09,1.04-39.78c8.61-19.34,27.65-30.84,47.57-30.84
			c7.05,0,14.22,1.44,21.07,4.49c4.97,2.22,9.49,5.15,13.44,8.66l-73.42,73.42C32.04,104.96,28.74,99.59,26.45,93.63z M122.48,96.14
			L122.48,96.14c-5.65,12.69-15.9,22.41-28.86,27.39c-12.96,4.98-27.09,4.61-39.78-1.04c-4.97-2.22-9.49-5.15-13.44-8.66
			l73.42-73.42c4.12,4.63,7.42,10,9.7,15.96C128.5,69.33,128.13,83.46,122.48,96.14z"/>
	</g>
</g>
</svg>
