<?xml version="1.0" encoding="utf-8"?>
<!-- Generator: Adobe Illustrator 24.2.1, SVG Export Plug-In . SVG Version: 6.00 Build 0)  -->
<svg version="1.1" id="レイヤー_1" xmlns="http://www.w3.org/2000/svg" xmlns:xlink="http://www.w3.org/1999/xlink" x="0px"
	 y="0px" viewBox="0 0 150 150" style="enable-background:new 0 0 150 150;" xml:space="preserve">
<style type="text/css">
	.st0{fill:#F19024;}
	.st1{fill:#FFFFFF;}
</style>
<g>
	<g>
		<path class="st0" d="M140,150H10c-5.5,0-10-4.5-10-10V10C0,4.5,4.5,0,10,0h130c5.5,0,10,4.5,10,10v130
			C150,145.5,145.5,150,140,150z"/>
	</g>
	<path class="st1" d="M38.7,37.4c-5.3-1.6-9.2-6.6-9.2-12.4c0-7.2,5.8-13,13-13s13,5.8,13,13c0,5.8-3.9,10.8-9.2,12.4
		c8.1,1.8,14.2,9,14.2,17.6c0,1.7-1.3,3-3,3h-30c-1.7,0-3-1.3-3-3C24.5,46.4,30.6,39.2,38.7,37.4z M89.5,55c0,1.7,1.3,3,3,3h30
		c1.7,0,3-1.3,3-3c0-8.6-6.1-15.8-14.2-17.6c5.3-1.6,9.2-6.6,9.2-12.4c0-7.2-5.8-13-13-13s-13,5.8-13,13c0,5.8,3.9,10.8,9.2,12.4
		C95.6,39.2,89.5,46.4,89.5,55z M41.6,118.5c3.1-2.1,5.2-5.7,5.2-9.7c0-6.5-5.3-11.8-11.8-11.8s-11.8,5.3-11.8,11.8
		c0,4,2.1,7.6,5.2,9.7c-5.3,2.5-8.9,7.8-8.9,14c0,1.7,1.3,3,3,3h25c1.7,0,3-1.3,3-3C50.5,126.3,46.8,121,41.6,118.5z M81.6,118.5
		c3.1-2.1,5.2-5.7,5.2-9.7c0-6.5-5.3-11.8-11.8-11.8s-11.8,5.3-11.8,11.8c0,4,2.1,7.6,5.2,9.7c-5.3,2.5-8.9,7.8-8.9,14
		c0,1.7,1.3,3,3,3h25c1.7,0,3-1.3,3-3C90.5,126.3,86.8,121,81.6,118.5z M121.6,118.5c3.1-2.1,5.2-5.7,5.2-9.7
		c0-6.5-5.3-11.8-11.8-11.8s-11.8,5.3-11.8,11.8c0,4,2.1,7.6,5.2,9.7c-5.3,2.5-8.9,7.8-8.9,14c0,1.7,1.3,3,3,3h25c1.7,0,3-1.3,3-3
		C130.5,126.3,126.8,121,121.6,118.5z M65,46.5h8.5V71H35c-0.8,0-1.5,0.7-1.5,1.5V90c0,0.8,0.7,1.5,1.5,1.5s1.5-0.7,1.5-1.5V74h37
		v16c0,0.8,0.7,1.5,1.5,1.5s1.5-0.7,1.5-1.5V74h37v16c0,0.8,0.7,1.5,1.5,1.5s1.5-0.7,1.5-1.5V72.5c0-0.8-0.7-1.5-1.5-1.5H76.5V46.5
		H85c0.8,0,1.5-0.7,1.5-1.5s-0.7-1.5-1.5-1.5H65c-0.8,0-1.5,0.7-1.5,1.5S64.2,46.5,65,46.5z"/>
</g>
</svg>
