<?xml version="1.0" encoding="utf-8"?>
<!-- Generator: Adobe Illustrator 24.2.3, SVG Export Plug-In . SVG Version: 6.00 Build 0)  -->
<svg version="1.1" id="レイヤー_1" xmlns="http://www.w3.org/2000/svg" xmlns:xlink="http://www.w3.org/1999/xlink" x="0px"
	 y="0px" viewBox="0 0 150 150" style="enable-background:new 0 0 150 150;" xml:space="preserve">
<style type="text/css">
	.st0{fill:#F19024;}
</style>
<g>
	<path class="st0" d="M24,55c0,1.9,1.6,3.5,3.5,3.5h30c1.9,0,3.5-1.6,3.5-3.5c0-8.3-5.5-15.3-13-17.7c4.7-2.1,8-6.8,8-12.3
		c0-7.4-6.1-13.5-13.5-13.5S29,17.6,29,25c0,5.5,3.3,10.2,8,12.3C29.5,39.7,24,46.7,24,55z"/>
	<path class="st0" d="M89,55c0,1.9,1.6,3.5,3.5,3.5h30c1.9,0,3.5-1.6,3.5-3.5c0-8.3-5.5-15.3-13-17.7c4.7-2.1,8-6.8,8-12.3
		c0-7.4-6.1-13.5-13.5-13.5S94,17.6,94,25c0,5.5,3.3,10.2,8,12.3C94.5,39.7,89,46.7,89,55z"/>
	<path class="st0" d="M42.5,118.4c2.9-2.2,4.7-5.7,4.7-9.6c0-6.8-5.5-12.2-12.2-12.2s-12.2,5.5-12.2,12.2c0,3.9,1.9,7.4,4.7,9.6
		c-5,2.7-8.5,8-8.5,14.1c0,1.9,1.6,3.5,3.5,3.5h25c1.9,0,3.5-1.6,3.5-3.5C51,126.4,47.6,121.1,42.5,118.4z"/>
	<path class="st0" d="M82.5,118.4c2.9-2.2,4.7-5.7,4.7-9.6c0-6.8-5.5-12.2-12.2-12.2s-12.2,5.5-12.2,12.2c0,3.9,1.9,7.4,4.7,9.6
		c-5,2.7-8.5,8-8.5,14.1c0,1.9,1.6,3.5,3.5,3.5h25c1.9,0,3.5-1.6,3.5-3.5C91,126.4,87.6,121.1,82.5,118.4z"/>
	<path class="st0" d="M122.5,118.4c2.9-2.2,4.7-5.7,4.7-9.6c0-6.8-5.5-12.2-12.2-12.2s-12.2,5.5-12.2,12.2c0,3.9,1.9,7.4,4.7,9.6
		c-5,2.7-8.5,8-8.5,14.1c0,1.9,1.6,3.5,3.5,3.5h25c1.9,0,3.5-1.6,3.5-3.5C131,126.4,127.6,121.1,122.5,118.4z"/>
	<path class="st0" d="M65,46.8h8.2v24H35c-1,0-1.8,0.8-1.8,1.8V90c0,1,0.8,1.8,1.8,1.8s1.8-0.8,1.8-1.8V74.2h36.5V90
		c0,1,0.8,1.8,1.8,1.8s1.8-0.8,1.8-1.8V74.2h36.5V90c0,1,0.8,1.8,1.8,1.8s1.8-0.8,1.8-1.8V72.5c0-1-0.8-1.8-1.8-1.8H76.8v-24H85
		c1,0,1.8-0.8,1.8-1.8S86,43.2,85,43.2H65c-1,0-1.8,0.8-1.8,1.8S64,46.8,65,46.8z"/>
</g>
</svg>
