<?xml version="1.0" encoding="utf-8"?>
<!-- Generator: Adobe Illustrator 24.2.3, SVG Export Plug-In . SVG Version: 6.00 Build 0)  -->
<svg version="1.1" id="レイヤー_1" xmlns="http://www.w3.org/2000/svg" xmlns:xlink="http://www.w3.org/1999/xlink" x="0px"
	 y="0px" viewBox="0 0 150 150" style="enable-background:new 0 0 150 150;" xml:space="preserve">
<style type="text/css">
	.st0{fill:#213A80;}
	.st1{fill:none;}
</style>
<g>
	<path class="st0" d="M58.5,85c0-1.8-1.36-3.26-3.1-3.46L39.1,44.3c-0.28-0.64-0.91-1.05-1.6-1.05s-1.32,0.41-1.6,1.05L19.6,81.54
		c-1.74,0.2-3.1,1.66-3.1,3.46c0,7.57,9.22,13.5,21,13.5S58.5,92.57,58.5,85z M37.5,49.37L51.56,81.5H23.44L37.5,49.37z"/>
	<path class="st0" d="M130.4,81.54L114.1,44.3c-0.28-0.64-0.91-1.05-1.6-1.05s-1.32,0.41-1.6,1.05L94.6,81.54
		c-1.74,0.2-3.1,1.66-3.1,3.46c0,7.57,9.22,13.5,21,13.5s21-5.93,21-13.5C133.5,83.2,132.14,81.74,130.4,81.54z M112.5,49.37
		l14.06,32.13H98.44L112.5,49.37z"/>
	<path class="st0" d="M95,116.5H78.5v-78H115c1.93,0,3.5-1.57,3.5-3.5s-1.57-3.5-3.5-3.5H78.5V25c0-1.93-1.57-3.5-3.5-3.5
		s-3.5,1.57-3.5,3.5v6.5H35c-1.93,0-3.5,1.57-3.5,3.5s1.57,3.5,3.5,3.5h36.5v78H55c-1.93,0-3.5,1.57-3.5,3.5s1.57,3.5,3.5,3.5h40
		c1.93,0,3.5-1.57,3.5-3.5S96.93,116.5,95,116.5z"/>
</g>
<rect id="_x3C_スライス_x3E__16_" class="st1" width="150" height="150"/>
<rect class="st1" width="150" height="150"/>
</svg>
