<?xml version="1.0" encoding="utf-8"?>
<!-- Generator: Adobe Illustrator 24.2.3, SVG Export Plug-In . SVG Version: 6.00 Build 0)  -->
<svg version="1.1" id="レイヤー_1" xmlns="http://www.w3.org/2000/svg" xmlns:xlink="http://www.w3.org/1999/xlink" x="0px"
	 y="0px" viewBox="0 0 150 150" style="enable-background:new 0 0 150 150;" xml:space="preserve">
<style type="text/css">
	.st0{fill:#213A80;}
	.st1{fill:#FFFFFF;}
</style>
<g>
	<g>
		<path class="st0" d="M140,150H10c-5.52,0-10-4.48-10-10V10C0,4.48,4.48,0,10,0h130c5.52,0,10,4.48,10,10v130
			C150,145.52,145.52,150,140,150z"/>
	</g>
	<g>
		<path class="st1" d="M58,85c0-1.54-1.17-2.8-2.66-2.97L38.87,44.4c-0.24-0.55-0.78-0.9-1.37-0.9s-1.14,0.35-1.37,0.9L19.66,82.03
			C18.17,82.2,17,83.46,17,85c0,7.29,9,13,20.5,13S58,92.29,58,85z M22.95,82L37.5,48.74L52.05,82H22.95z"/>
		<path class="st1" d="M130.34,82.03L113.87,44.4c-0.24-0.55-0.78-0.9-1.37-0.9s-1.14,0.35-1.37,0.9L94.66,82.03
			C93.17,82.2,92,83.46,92,85c0,7.29,9,13,20.5,13S133,92.29,133,85C133,83.46,131.83,82.2,130.34,82.03z M97.95,82l14.55-33.26
			L127.05,82H97.95z"/>
		<path class="st1" d="M95,117H78V38h37c1.66,0,3-1.34,3-3s-1.34-3-3-3H78v-7c0-1.66-1.34-3-3-3s-3,1.34-3,3v7H35
			c-1.66,0-3,1.34-3,3s1.34,3,3,3h37v79H55c-1.66,0-3,1.34-3,3s1.34,3,3,3h40c1.66,0,3-1.34,3-3S96.66,117,95,117z"/>
	</g>
</g>
</svg>
