<?xml version="1.0" encoding="utf-8"?>
<!-- Generator: Adobe Illustrator 24.2.3, SVG Export Plug-In . SVG Version: 6.00 Build 0)  -->
<svg version="1.1" id="レイヤー_1" xmlns="http://www.w3.org/2000/svg" xmlns:xlink="http://www.w3.org/1999/xlink" x="0px"
	 y="0px" viewBox="0 0 150 150" style="enable-background:new 0 0 150 150;" xml:space="preserve">
<style type="text/css">
	.st0{fill:#0B92BF;}
	.st1{fill:#FFFFFF;}
	.st2{fill:none;}
</style>
<g>
	<g>
		<path class="st0" d="M140,150H10c-5.52,0-10-4.48-10-10V10C0,4.48,4.48,0,10,0h130c5.52,0,10,4.48,10,10v130
			C150,145.52,145.52,150,140,150z"/>
	</g>
	<g>
		<path class="st1" d="M137.74,113.78l-20-45C117.26,67.7,116.19,67,115,67H91c-5.17,7.58-10.76,16.17-10.83,16.27
			c-1.11,1.7-3,2.73-5.03,2.73h-0.29c-2.03,0-3.92-1.03-5.03-2.73C69.75,83.17,64.17,74.58,59,67H35c-1.19,0-2.26,0.7-2.74,1.78
			l-20,45c-0.41,0.93-0.33,2,0.23,2.85S13.98,118,15,118h120c1.02,0,1.96-0.51,2.52-1.37S138.15,114.71,137.74,113.78z"/>
		<path class="st1" d="M72.34,81.63c0.55,0.85,1.5,1.37,2.52,1.37h0.29c1.02,0,1.96-0.51,2.52-1.37
			c0.08-0.12,8.17-12.57,13.93-20.77c6.32-9,8.91-22.89-0.33-32.13c-8.97-8.97-23.56-8.97-32.53,0c-9.24,9.24-6.65,23.13-0.33,32.13
			C64.16,69.07,72.26,81.51,72.34,81.63z M75,35c5.52,0,10,4.48,10,10c0,5.52-4.48,10-10,10s-10-4.48-10-10C65,39.48,69.48,35,75,35
			z"/>
	</g>
</g>
<rect id="_x3C_スライス_x3E__7_" class="st2" width="150" height="150"/>
</svg>
