<?xml version="1.0" encoding="utf-8"?>
<!-- Generator: Adobe Illustrator 24.2.3, SVG Export Plug-In . SVG Version: 6.00 Build 0)  -->
<svg version="1.1" id="レイヤー_1" xmlns="http://www.w3.org/2000/svg" xmlns:xlink="http://www.w3.org/1999/xlink" x="0px"
	 y="0px" viewBox="0 0 150 150" style="enable-background:new 0 0 150 150;" xml:space="preserve">
<style type="text/css">
	.st0{fill:#0B92BF;}
	.st1{fill:none;}
</style>
<path class="st0" d="M137.93,116.91c-0.65,0.99-1.75,1.59-2.93,1.59H15c-1.18,0-2.29-0.6-2.93-1.59s-0.75-2.25-0.26-3.33l20-45
	c0.56-1.26,1.82-2.08,3.2-2.08h23.35c5.29,7.72,11.19,16.8,11.26,16.91c1.15,1.77,3.12,2.84,5.24,2.84h0.29
	c2.12,0,4.09-1.07,5.24-2.84c0.07-0.11,5.97-9.18,11.26-16.91H115c1.38,0,2.64,0.81,3.2,2.08l20,45
	C138.68,114.66,138.58,115.91,137.93,116.91z M57.99,61.15c-6.43-9.16-9.06-23.33,0.39-32.77c9.16-9.16,24.07-9.16,33.23,0
	c9.45,9.45,6.82,23.61,0.39,32.77c-5.75,8.19-13.84,20.63-13.92,20.75c-0.65,0.99-1.75,1.59-2.93,1.59h-0.29
	c-1.18,0-2.29-0.6-2.93-1.59C71.84,81.78,63.75,69.35,57.99,61.15z M65,45c0,5.52,4.48,10,10,10s10-4.48,10-10c0-5.52-4.48-10-10-10
	S65,39.48,65,45z"/>
<rect class="st1" width="150" height="150"/>
</svg>
